<svg xmlns="http://www.w3.org/2000/svg" xmlns:xlink="http://www.w3.org/1999/xlink" width="1600" height="840" viewBox="0 0 1600 840"><defs><filter id="grey"><feColorMatrix type="saturate" values="0"/></filter></defs><rect width="1600" height="840" fill="#f7f7f4"/><text x="60" y="78" font-family="system-ui,-apple-system,'Segoe UI',Helvetica,Arial,sans-serif" font-size="40" font-weight="700" fill="#161616">LOOB — logo concepts</text><text x="60" y="116" font-family="system-ui,-apple-system,'Segoe UI',Helvetica,Arial,sans-serif" font-size="20" fill="#6b6b6b">Original directions inspired by the warmth of a reading companion.</text><rect x="60" y="150" width="474.667" height="630" rx="18" fill="#fff" stroke="#e4e4e0" stroke-width="1"/><g filter="url(#grey)"><svg xmlns="http://www.w3.org/2000/svg" role="img" aria-labelledby="title" viewBox="0 0 256 256" x="90" y="190" width="414.667" height="300" preserveAspectRatio="xMidYMid meet">
  <title id="c0-title">LOOB Fold logo concept</title>
  <g id="c0-symbol" fill="#111111">
    <path d="M28 42C65 41 94 53 112 77V203C92 183 62 174 28 177Z"/>
    <path d="M228 42C191 41 162 53 144 77V203C164 183 194 174 228 177Z"/>
    <path d="M120 82H136V216H120Z"/>
  </g>
</svg>
</g><g filter="url(#grey)"><svg xmlns="http://www.w3.org/2000/svg" role="img" aria-labelledby="title" viewBox="0 0 256 256" x="90" y="516" width="64" height="64" preserveAspectRatio="xMidYMid meet">
  <title id="s064-title">LOOB Fold logo concept</title>
  <g id="s064-symbol" fill="#111111">
    <path d="M28 42C65 41 94 53 112 77V203C92 183 62 174 28 177Z"/>
    <path d="M228 42C191 41 162 53 144 77V203C164 183 194 174 228 177Z"/>
    <path d="M120 82H136V216H120Z"/>
  </g>
</svg>
</g><text x="122" y="600" font-family="system-ui,-apple-system,'Segoe UI',Helvetica,Arial,sans-serif" font-size="12" fill="#8a8a8a" text-anchor="middle">64px</text><g filter="url(#grey)"><svg xmlns="http://www.w3.org/2000/svg" role="img" aria-labelledby="title" viewBox="0 0 256 256" x="180" y="548" width="32" height="32" preserveAspectRatio="xMidYMid meet">
  <title id="s032-title">LOOB Fold logo concept</title>
  <g id="s032-symbol" fill="#111111">
    <path d="M28 42C65 41 94 53 112 77V203C92 183 62 174 28 177Z"/>
    <path d="M228 42C191 41 162 53 144 77V203C164 183 194 174 228 177Z"/>
    <path d="M120 82H136V216H120Z"/>
  </g>
</svg>
</g><text x="196" y="600" font-family="system-ui,-apple-system,'Segoe UI',Helvetica,Arial,sans-serif" font-size="12" fill="#8a8a8a" text-anchor="middle">32px</text><g filter="url(#grey)"><svg xmlns="http://www.w3.org/2000/svg" role="img" aria-labelledby="title" viewBox="0 0 256 256" x="238" y="564" width="16" height="16" preserveAspectRatio="xMidYMid meet">
  <title id="s016-title">LOOB Fold logo concept</title>
  <g id="s016-symbol" fill="#111111">
    <path d="M28 42C65 41 94 53 112 77V203C92 183 62 174 28 177Z"/>
    <path d="M228 42C191 41 162 53 144 77V203C164 183 194 174 228 177Z"/>
    <path d="M120 82H136V216H120Z"/>
  </g>
</svg>
</g><text x="246" y="600" font-family="system-ui,-apple-system,'Segoe UI',Helvetica,Arial,sans-serif" font-size="12" fill="#8a8a8a" text-anchor="middle">16px</text><text x="90.0" y="636" font-family="system-ui,-apple-system,'Segoe UI',Helvetica,Arial,sans-serif" font-size="26" font-weight="700" fill="#161616">A · Fold</text><text x="90.0" y="670" font-family="system-ui,-apple-system,'Segoe UI',Helvetica,Arial,sans-serif" font-size="19" fill="#555">An open spread built around a firm, quiet</text><text x="90.0" y="696" font-family="system-ui,-apple-system,'Segoe UI',Helvetica,Arial,sans-serif" font-size="19" fill="#555">central fold.</text><rect x="562.667" y="150" width="474.667" height="630" rx="18" fill="#fff" stroke="#161616" stroke-width="2"/><g filter="url(#grey)"><svg xmlns="http://www.w3.org/2000/svg" role="img" aria-labelledby="title" viewBox="0 0 256 256" x="592.667" y="190" width="414.667" height="300" preserveAspectRatio="xMidYMid meet">
  <title id="c1-title">LOOB Page Turn logo concept</title>
  <g id="c1-symbol" fill="#111111">
    <path d="M36 42H126C164 42 192 70 192 108V122H166V108C166 85 149 68 126 68H62V152H36Z"/>
    <path d="M220 214H130C92 214 64 186 64 148V134H90V148C90 171 107 188 130 188H194V104H220Z"/>
    <path d="M128 68C151 68 170 87 170 110V128H144V110C144 101 137 94 128 94Z"/>
    <path d="M128 188C105 188 86 169 86 146V128H112V146C112 155 119 162 128 162Z"/>
  </g>
</svg>
</g><g filter="url(#grey)"><svg xmlns="http://www.w3.org/2000/svg" role="img" aria-labelledby="title" viewBox="0 0 256 256" x="592.667" y="516" width="64" height="64" preserveAspectRatio="xMidYMid meet">
  <title id="s164-title">LOOB Page Turn logo concept</title>
  <g id="s164-symbol" fill="#111111">
    <path d="M36 42H126C164 42 192 70 192 108V122H166V108C166 85 149 68 126 68H62V152H36Z"/>
    <path d="M220 214H130C92 214 64 186 64 148V134H90V148C90 171 107 188 130 188H194V104H220Z"/>
    <path d="M128 68C151 68 170 87 170 110V128H144V110C144 101 137 94 128 94Z"/>
    <path d="M128 188C105 188 86 169 86 146V128H112V146C112 155 119 162 128 162Z"/>
  </g>
</svg>
</g><text x="624.667" y="600" font-family="system-ui,-apple-system,'Segoe UI',Helvetica,Arial,sans-serif" font-size="12" fill="#8a8a8a" text-anchor="middle">64px</text><g filter="url(#grey)"><svg xmlns="http://www.w3.org/2000/svg" role="img" aria-labelledby="title" viewBox="0 0 256 256" x="682.667" y="548" width="32" height="32" preserveAspectRatio="xMidYMid meet">
  <title id="s132-title">LOOB Page Turn logo concept</title>
  <g id="s132-symbol" fill="#111111">
    <path d="M36 42H126C164 42 192 70 192 108V122H166V108C166 85 149 68 126 68H62V152H36Z"/>
    <path d="M220 214H130C92 214 64 186 64 148V134H90V148C90 171 107 188 130 188H194V104H220Z"/>
    <path d="M128 68C151 68 170 87 170 110V128H144V110C144 101 137 94 128 94Z"/>
    <path d="M128 188C105 188 86 169 86 146V128H112V146C112 155 119 162 128 162Z"/>
  </g>
</svg>
</g><text x="698.667" y="600" font-family="system-ui,-apple-system,'Segoe UI',Helvetica,Arial,sans-serif" font-size="12" fill="#8a8a8a" text-anchor="middle">32px</text><g filter="url(#grey)"><svg xmlns="http://www.w3.org/2000/svg" role="img" aria-labelledby="title" viewBox="0 0 256 256" x="740.667" y="564" width="16" height="16" preserveAspectRatio="xMidYMid meet">
  <title id="s116-title">LOOB Page Turn logo concept</title>
  <g id="s116-symbol" fill="#111111">
    <path d="M36 42H126C164 42 192 70 192 108V122H166V108C166 85 149 68 126 68H62V152H36Z"/>
    <path d="M220 214H130C92 214 64 186 64 148V134H90V148C90 171 107 188 130 188H194V104H220Z"/>
    <path d="M128 68C151 68 170 87 170 110V128H144V110C144 101 137 94 128 94Z"/>
    <path d="M128 188C105 188 86 169 86 146V128H112V146C112 155 119 162 128 162Z"/>
  </g>
</svg>
</g><text x="748.667" y="600" font-family="system-ui,-apple-system,'Segoe UI',Helvetica,Arial,sans-serif" font-size="12" fill="#8a8a8a" text-anchor="middle">16px</text><text x="592.6666666666667" y="636" font-family="system-ui,-apple-system,'Segoe UI',Helvetica,Arial,sans-serif" font-size="26" font-weight="700" fill="#161616">B · Page turn</text><text x="592.6666666666667" y="664" font-family="system-ui,-apple-system,'Segoe UI',Helvetica,Arial,sans-serif" font-size="15" font-weight="700" fill="#161616" letter-spacing="1.5">RECOMMENDED</text><text x="592.6666666666667" y="698" font-family="system-ui,-apple-system,'Segoe UI',Helvetica,Arial,sans-serif" font-size="19" fill="#555">Interlocking page corners form a continuous</text><text x="592.6666666666667" y="724" font-family="system-ui,-apple-system,'Segoe UI',Helvetica,Arial,sans-serif" font-size="19" fill="#555">reading path.</text><rect x="1065.33" y="150" width="474.667" height="630" rx="18" fill="#fff" stroke="#e4e4e0" stroke-width="1"/><g filter="url(#grey)"><svg xmlns="http://www.w3.org/2000/svg" role="img" aria-labelledby="title" viewBox="0 0 256 256" x="1095.33" y="190" width="414.667" height="300" preserveAspectRatio="xMidYMid meet">
  <title id="c2-title">LOOB Reading Window logo concept</title>
  <g id="c2-symbol" fill="#111111">
    <path fill-rule="evenodd" d="M26 52C70 46 103 62 128 93V204C103 173 70 158 26 166ZM230 52C186 46 153 62 128 93V204C153 173 186 158 230 166ZM42 82C75 78 99 90 120 113V140C99 117 75 106 42 110ZM214 82C181 78 157 90 136 113V140C157 117 181 106 214 110Z"/>
    <circle cx="128" cy="151" r="14"/>
  </g>
</svg>
</g><g filter="url(#grey)"><svg xmlns="http://www.w3.org/2000/svg" role="img" aria-labelledby="title" viewBox="0 0 256 256" x="1095.33" y="516" width="64" height="64" preserveAspectRatio="xMidYMid meet">
  <title id="s264-title">LOOB Reading Window logo concept</title>
  <g id="s264-symbol" fill="#111111">
    <path fill-rule="evenodd" d="M26 52C70 46 103 62 128 93V204C103 173 70 158 26 166ZM230 52C186 46 153 62 128 93V204C153 173 186 158 230 166ZM42 82C75 78 99 90 120 113V140C99 117 75 106 42 110ZM214 82C181 78 157 90 136 113V140C157 117 181 106 214 110Z"/>
    <circle cx="128" cy="151" r="14"/>
  </g>
</svg>
</g><text x="1127.33" y="600" font-family="system-ui,-apple-system,'Segoe UI',Helvetica,Arial,sans-serif" font-size="12" fill="#8a8a8a" text-anchor="middle">64px</text><g filter="url(#grey)"><svg xmlns="http://www.w3.org/2000/svg" role="img" aria-labelledby="title" viewBox="0 0 256 256" x="1185.33" y="548" width="32" height="32" preserveAspectRatio="xMidYMid meet">
  <title id="s232-title">LOOB Reading Window logo concept</title>
  <g id="s232-symbol" fill="#111111">
    <path fill-rule="evenodd" d="M26 52C70 46 103 62 128 93V204C103 173 70 158 26 166ZM230 52C186 46 153 62 128 93V204C153 173 186 158 230 166ZM42 82C75 78 99 90 120 113V140C99 117 75 106 42 110ZM214 82C181 78 157 90 136 113V140C157 117 181 106 214 110Z"/>
    <circle cx="128" cy="151" r="14"/>
  </g>
</svg>
</g><text x="1201.33" y="600" font-family="system-ui,-apple-system,'Segoe UI',Helvetica,Arial,sans-serif" font-size="12" fill="#8a8a8a" text-anchor="middle">32px</text><g filter="url(#grey)"><svg xmlns="http://www.w3.org/2000/svg" role="img" aria-labelledby="title" viewBox="0 0 256 256" x="1243.33" y="564" width="16" height="16" preserveAspectRatio="xMidYMid meet">
  <title id="s216-title">LOOB Reading Window logo concept</title>
  <g id="s216-symbol" fill="#111111">
    <path fill-rule="evenodd" d="M26 52C70 46 103 62 128 93V204C103 173 70 158 26 166ZM230 52C186 46 153 62 128 93V204C153 173 186 158 230 166ZM42 82C75 78 99 90 120 113V140C99 117 75 106 42 110ZM214 82C181 78 157 90 136 113V140C157 117 181 106 214 110Z"/>
    <circle cx="128" cy="151" r="14"/>
  </g>
</svg>
</g><text x="1251.33" y="600" font-family="system-ui,-apple-system,'Segoe UI',Helvetica,Arial,sans-serif" font-size="12" fill="#8a8a8a" text-anchor="middle">16px</text><text x="1095.3333333333335" y="636" font-family="system-ui,-apple-system,'Segoe UI',Helvetica,Arial,sans-serif" font-size="26" font-weight="700" fill="#161616">C · Reading window</text><text x="1095.3333333333335" y="670" font-family="system-ui,-apple-system,'Segoe UI',Helvetica,Arial,sans-serif" font-size="19" fill="#555">Nested page arcs frame one point of focus</text><text x="1095.3333333333335" y="696" font-family="system-ui,-apple-system,'Segoe UI',Helvetica,Arial,sans-serif" font-size="19" fill="#555">for attentive reading.</text></svg>
